#format: frame checksums
#version: 2
#hash: MD5
#tb 0: 1/25
#media_type 0: video
#codec_id 0: rawvideo
#dimensions 0: 160x120
#sar 0: 1/1
#stream#, dts,        pts, duration,     size, hash
0,          0,          0,        1,    57600, 216a26ad23e826b5132601ca1c4395a3
0,          1,          1,        1,    57600, 0280f4d70a5833ef305a3ee7277e98f1
0,          2,          2,        1,    57600, 454bc0ddf6436557398686635dfff663
0,          3,          3,        1,    57600, 173eb3a1887516fb4d787a5256fad415
0,          4,          4,        1,    57600, ebc11cb16514becc4897b2909b33b0e3
